# xmcd
#
# Track frame offsets: 
#        150
#        19746
#        37764
#        56466
#        72878
#        86713
#        99183
#        115745
#        131796
#        154942
#        168024
#        186249
#        202325
#        217540
#        235805
#        259299
#        276095
#        291779
#        307668
#        324685
#
# Disc length: 4528 seconds
#
# Revision: 0
# Processed by: cddbd v1.5.2PL0 Copyright (c) Steve Scherf et al.
# Submitted via: ExactAudioCopy v1.1
#
DISCID=1211ae14
DTITLE=Various Artist - MNM Back To The 90s and Nillies - Party Edition 2019 - 
DTITLE=CD 2
DYEAR=2019
DGENRE=Top 40
TTITLE0=Bloodhound Gang - The Bad Touch
TTITLE1=Jennifer Lopez - Let's Get Loud
TTITLE2=Clouseau - Domino
TTITLE3=Shakira Feat. Wyclef Jean - Hips Don't Lie
TTITLE4=Haddaway - What Is Love
TTITLE5=Fatman Scoop Feat. The Crooklyn Clan - Be Faithful
TTITLE6=2 Unlimited - The Real Thing
TTITLE7=Sean Paul - Get Busy
TTITLE8=The Cranberries - Zombie
TTITLE9=Bomfunk MC's - Freestyler
TTITLE10=Coolio Feat. L.V. - Gangsta's Paradise
TTITLE11=Milk Inc. Feat. Silvy - I Don't Care
TTITLE12=The Dinky Toys - Out In The Streets (She Boom...)
TTITLE13=Wheatus - Teenage Dirtbag
TTITLE14=2 Brothers On The 4th Floor Feat. Des'Ray and D-Rock - Come T
TTITLE14=ake My Hand
TTITLE15=Modjo - Lady (Hear Me Tonight)
TTITLE16=Five - Got The Feelin'
TTITLE17=Gigi D'Agostino - La Passion
TTITLE18=Crystal Waters - Gypsy Woman (La Da Dee La Da Da)
TTITLE19=*NSYNC - Bye Bye Bye
EXTD=
EXTT0=
EXTT1=
EXTT2=
EXTT3=
EXTT4=
EXTT5=
EXTT6=
EXTT7=
EXTT8=
EXTT9=
EXTT10=
EXTT11=
EXTT12=
EXTT13=
EXTT14=
EXTT15=
EXTT16=
EXTT17=
EXTT18=
EXTT19=
PLAYORDER=
